<svg width="900" height="900" viewBox="0 0 900 900" fill="none" xmlns="http://www.w3.org/2000/svg">
  <rect width="900" height="900" fill="#F3F3F3"/>

  <g transform="translate(0 300)">
  <rect x="60" y="54" width="780" height="62" rx="18" fill="#F9F9FA"/>
  <circle cx="694" cy="85" r="5" fill="#1C1C1E" opacity="0.55"/>
  <circle cx="728" cy="85" r="5" fill="#1C1C1E" opacity="0.55"/>
  <circle cx="762" cy="85" r="5" fill="#1C1C1E" opacity="0.55"/>
  <g fill="#1C1C1E">
    <rect x="809.6" y="69.6" width="4.9" height="30.8" rx="1.6"/>
    <rect x="799.4" y="76.8" width="9.1" height="1.3" rx="0.7" opacity="0.28"/>
    <rect x="796.8" y="80.3" width="12.6" height="1.5" rx="0.7" opacity="0.64"/>
    <rect x="795.5" y="83.7" width="14.3" height="1.7" rx="0.8"/>
    <rect x="796.8" y="87.3" width="12.6" height="1.5" rx="0.7" opacity="0.64"/>
    <rect x="799.4" y="90.8" width="9.1" height="1.3" rx="0.7" opacity="0.28"/>
    <rect x="815.5" y="76.8" width="9.1" height="1.3" rx="0.7" opacity="0.28"/>
    <rect x="814.7" y="80.3" width="12.6" height="1.5" rx="0.7" opacity="0.64"/>
    <rect x="814.2" y="83.7" width="14.3" height="1.7" rx="0.8"/>
    <rect x="814.7" y="87.3" width="12.6" height="1.5" rx="0.7" opacity="0.64"/>
    <rect x="815.5" y="90.8" width="9.1" height="1.3" rx="0.7" opacity="0.28"/>
  </g>

  <rect x="60" y="184" width="780" height="62" rx="18" fill="#111113"/>
  <circle cx="694" cy="215" r="5" fill="#F5F5F7" opacity="0.62"/>
  <circle cx="728" cy="215" r="5" fill="#F5F5F7" opacity="0.62"/>
  <circle cx="762" cy="215" r="5" fill="#F5F5F7" opacity="0.62"/>
  <g fill="#F5F5F7">
    <rect x="809.6" y="199.6" width="4.9" height="30.8" rx="1.6"/>
    <rect x="799.4" y="206.8" width="9.1" height="1.3" rx="0.7" opacity="0.28"/>
    <rect x="796.8" y="210.3" width="12.6" height="1.5" rx="0.7" opacity="0.64"/>
    <rect x="795.5" y="213.7" width="14.3" height="1.7" rx="0.8"/>
    <rect x="796.8" y="217.3" width="12.6" height="1.5" rx="0.7" opacity="0.64"/>
    <rect x="799.4" y="220.8" width="9.1" height="1.3" rx="0.7" opacity="0.28"/>
    <rect x="815.5" y="206.8" width="9.1" height="1.3" rx="0.7" opacity="0.28"/>
    <rect x="814.7" y="210.3" width="12.6" height="1.5" rx="0.7" opacity="0.64"/>
    <rect x="814.2" y="213.7" width="14.3" height="1.7" rx="0.8"/>
    <rect x="814.7" y="217.3" width="12.6" height="1.5" rx="0.7" opacity="0.64"/>
    <rect x="815.5" y="220.8" width="9.1" height="1.3" rx="0.7" opacity="0.28"/>
  </g>
  </g>
</svg>
