<svg width="1024" height="1024" viewBox="0 0 1024 1024" fill="none" xmlns="http://www.w3.org/2000/svg">
  <defs>
    <linearGradient id="tileGradient" x1="118" y1="78" x2="900" y2="956" gradientUnits="userSpaceOnUse">
      <stop stop-color="#006CFF"/>
      <stop offset="0.5" stop-color="#0058F5"/>
      <stop offset="1" stop-color="#0047D8"/>
    </linearGradient>
    <radialGradient id="tileGlow" cx="0" cy="0" r="1" gradientUnits="userSpaceOnUse" gradientTransform="translate(512 505) rotate(90) scale(520 470)">
      <stop stop-color="#1483FF" stop-opacity="0.85"/>
      <stop offset="0.72" stop-color="#0054F4" stop-opacity="0"/>
    </radialGradient>
    <linearGradient id="leftFade" x1="144" y1="0" x2="424" y2="0" gradientUnits="userSpaceOnUse">
      <stop stop-color="white" stop-opacity="0"/>
      <stop offset="0.48" stop-color="white" stop-opacity="0.58"/>
      <stop offset="0.88" stop-color="white" stop-opacity="0.98"/>
      <stop offset="1" stop-color="white"/>
    </linearGradient>
    <linearGradient id="rightFade" x1="600" y1="0" x2="880" y2="0" gradientUnits="userSpaceOnUse">
      <stop stop-color="white"/>
      <stop offset="0.12" stop-color="white" stop-opacity="0.98"/>
      <stop offset="0.52" stop-color="white" stop-opacity="0.58"/>
      <stop offset="1" stop-color="white" stop-opacity="0"/>
    </linearGradient>
    <linearGradient id="playhead" x1="481" y1="200" x2="543" y2="824" gradientUnits="userSpaceOnUse">
      <stop stop-color="white"/>
      <stop offset="0.5" stop-color="#F8FBFF"/>
      <stop offset="1" stop-color="#EAF3FF"/>
    </linearGradient>
    <pattern id="tickPattern" width="36" height="28" patternUnits="userSpaceOnUse">
      <path d="M0 0V16" stroke="white" stroke-opacity="0.18" stroke-width="3"/>
      <path d="M18 0V9" stroke="white" stroke-opacity="0.13" stroke-width="2"/>
    </pattern>
    <filter id="softStreak" x="-60" y="-18" width="400" height="56" filterUnits="userSpaceOnUse" color-interpolation-filters="sRGB">
      <feGaussianBlur stdDeviation="16 3"/>
    </filter>
    <filter id="barShadow" x="450" y="170" width="124" height="684" filterUnits="userSpaceOnUse" color-interpolation-filters="sRGB">
      <feDropShadow dx="0" dy="0" stdDeviation="7" flood-color="#003CBB" flood-opacity="0.2"/>
    </filter>
    <clipPath id="tileClip">
      <rect x="48" y="48" width="928" height="928" rx="150"/>
    </clipPath>
  </defs>

  <g clip-path="url(#tileClip)">
    <rect x="48" y="48" width="928" height="928" rx="150" fill="url(#tileGradient)"/>
    <rect x="48" y="48" width="928" height="928" rx="150" fill="url(#tileGlow)"/>

    <g opacity="0.55">
      <path d="M48 228H976" stroke="white" stroke-opacity="0.18" stroke-width="3"/>
      <path d="M48 512H976" stroke="white" stroke-opacity="0.08" stroke-width="3"/>
      <path d="M48 796H976" stroke="white" stroke-opacity="0.18" stroke-width="3"/>
      <path d="M288 48V976" stroke="white" stroke-opacity="0.18" stroke-width="3"/>
      <path d="M512 48V976" stroke="white" stroke-opacity="0.14" stroke-width="3" stroke-dasharray="14 14"/>
      <path d="M736 48V976" stroke="white" stroke-opacity="0.18" stroke-width="3"/>
      <path d="M48 228H976" stroke="white" stroke-opacity="0.14" stroke-width="2" stroke-dasharray="14 16"/>
      <path d="M48 796H976" stroke="white" stroke-opacity="0.14" stroke-width="2" stroke-dasharray="14 16"/>
    </g>

    <rect x="48" y="205" width="928" height="28" fill="url(#tickPattern)" opacity="0.58"/>
    <rect x="48" y="791" width="928" height="28" fill="url(#tickPattern)" opacity="0.58"/>

    <g opacity="0.34" filter="url(#softStreak)">
      <path d="M142 330H428" stroke="url(#leftFade)" stroke-width="24" stroke-linecap="round"/>
      <path d="M118 402H400" stroke="url(#leftFade)" stroke-width="24" stroke-linecap="round"/>
      <path d="M110 474H426" stroke="url(#leftFade)" stroke-width="24" stroke-linecap="round"/>
      <path d="M122 546H400" stroke="url(#leftFade)" stroke-width="24" stroke-linecap="round"/>
      <path d="M150 618H426" stroke="url(#leftFade)" stroke-width="24" stroke-linecap="round"/>
      <path d="M596 330H882" stroke="url(#rightFade)" stroke-width="24" stroke-linecap="round"/>
      <path d="M624 402H906" stroke="url(#rightFade)" stroke-width="24" stroke-linecap="round"/>
      <path d="M598 474H914" stroke="url(#rightFade)" stroke-width="24" stroke-linecap="round"/>
      <path d="M624 546H902" stroke="url(#rightFade)" stroke-width="24" stroke-linecap="round"/>
      <path d="M598 618H874" stroke="url(#rightFade)" stroke-width="24" stroke-linecap="round"/>
    </g>

    <g>
      <path d="M236 330H420" stroke="url(#leftFade)" stroke-width="21" stroke-linecap="round"/>
      <path d="M164 402H382" stroke="url(#leftFade)" stroke-width="21" stroke-linecap="round"/>
      <path d="M144 474H420" stroke="url(#leftFade)" stroke-width="21" stroke-linecap="round"/>
      <path d="M164 546H382" stroke="url(#leftFade)" stroke-width="21" stroke-linecap="round"/>
      <path d="M236 618H420" stroke="url(#leftFade)" stroke-width="21" stroke-linecap="round"/>

      <path d="M604 330H788" stroke="url(#rightFade)" stroke-width="21" stroke-linecap="round"/>
      <path d="M642 402H860" stroke="url(#rightFade)" stroke-width="21" stroke-linecap="round"/>
      <path d="M604 474H880" stroke="url(#rightFade)" stroke-width="21" stroke-linecap="round"/>
      <path d="M642 546H860" stroke="url(#rightFade)" stroke-width="21" stroke-linecap="round"/>
      <path d="M604 618H788" stroke="url(#rightFade)" stroke-width="21" stroke-linecap="round"/>
    </g>

    <g filter="url(#barShadow)">
      <rect x="478" y="198" width="68" height="628" rx="24" fill="url(#playhead)"/>
    </g>
  </g>
</svg>
