<svg xmlns="http://www.w3.org/2000/svg" width="1200" height="630" viewBox="0 0 1200 630" role="img" aria-labelledby="title desc">
  <title id="title">Ripple agentic video editing preview</title>
  <desc id="desc">A polished Ripple motion-design app preview for no-code agentic video editing with comments, visual context, and isolated revisions.</desc>
  <rect width="1200" height="630" fill="#f7f7f4"/>
  <rect x="72" y="72" width="1056" height="486" rx="10" fill="#d8d6ce" stroke="#c9c5b8"/>
  <rect x="418" y="116" width="664" height="396" rx="12" fill="#1d1d1a"/>
  <rect x="418" y="116" width="664" height="34" rx="12" fill="#171713"/>
  <circle cx="444" cy="133" r="6" fill="#ff5f57"/>
  <circle cx="463" cy="133" r="6" fill="#ffbd2e"/>
  <circle cx="482" cy="133" r="6" fill="#28c840"/>
  <text x="750" y="138" text-anchor="middle" font-family="Inter, system-ui, sans-serif" font-size="13" fill="#f7f7f4" opacity=".72">Ripple Desktop</text>
  <rect x="448" y="174" width="410" height="230" rx="8" fill="#10100e"/>
  <path d="M448 216H858M448 258H858M448 300H858M448 342H858M500 174V404M552 174V404M604 174V404M656 174V404M708 174V404M760 174V404M812 174V404" stroke="#fff" stroke-opacity=".06"/>
  <rect x="504" y="224" width="298" height="156" rx="12" fill="#dd9279"/>
  <rect x="531" y="248" width="244" height="110" rx="18" fill="none" stroke="#fff" stroke-opacity=".22"/>
  <rect x="616" y="265" width="56" height="84" rx="16" fill="#11110f"/>
  <rect x="638" y="279" width="22" height="48" rx="9" fill="#4f8eff"/>
  <rect x="570" y="282" width="54" height="76" rx="12" fill="#e8e5da" stroke="#11110f" stroke-width="5" transform="rotate(-12 597 320)"/>
  <rect x="668" y="282" width="54" height="76" rx="12" fill="#d8ead7" stroke="#11110f" stroke-width="5" transform="rotate(12 695 320)"/>
  <text x="770" y="374" text-anchor="end" font-family="Inter, system-ui, sans-serif" font-size="34" font-weight="800" fill="#fff">MAKE WAVES</text>
  <rect x="884" y="174" width="160" height="248" rx="8" fill="#24241f"/>
  <text x="908" y="210" font-family="Inter, system-ui, sans-serif" font-size="16" font-weight="700" fill="#fff">Comment #18</text>
  <text x="908" y="242" font-family="Inter, system-ui, sans-serif" font-size="12" fill="#fff" opacity=".72">Hold the final frame and</text>
  <text x="908" y="260" font-family="Inter, system-ui, sans-serif" font-size="12" fill="#fff" opacity=".72">make the reveal premium.</text>
  <circle cx="912" cy="296" r="5" fill="#4ec9b0"/>
  <circle cx="912" cy="324" r="5" fill="#4ec9b0"/>
  <circle cx="912" cy="352" r="5" fill="#4ec9b0"/>
  <text x="928" y="300" font-family="Inter, system-ui, sans-serif" font-size="12" fill="#fff" opacity=".72">Current frame</text>
  <text x="928" y="328" font-family="Inter, system-ui, sans-serif" font-size="12" fill="#fff" opacity=".72">Frame sheet</text>
  <text x="928" y="356" font-family="Inter, system-ui, sans-serif" font-size="12" fill="#fff" opacity=".72">Revision ready</text>
  <rect x="118" y="124" width="260" height="356" rx="12" fill="#1d1d1a"/>
  <text x="146" y="164" font-family="Inter, system-ui, sans-serif" font-size="15" fill="#fff" opacity=".62">In Progress</text>
  <rect x="146" y="190" width="204" height="54" rx="8" fill="#2b2b27"/>
  <rect x="146" y="258" width="204" height="54" rx="8" fill="#2b2b27"/>
  <rect x="146" y="326" width="204" height="54" rx="8" fill="#2b2b27"/>
  <text x="164" y="224" font-family="Inter, system-ui, sans-serif" font-size="15" font-weight="700" fill="#fff">Polish title reveal</text>
  <text x="164" y="292" font-family="Inter, system-ui, sans-serif" font-size="15" font-weight="700" fill="#fff">Lower third pass</text>
  <text x="164" y="360" font-family="Inter, system-ui, sans-serif" font-size="15" font-weight="700" fill="#fff">Export social cut</text>
  <text x="72" y="596" font-family="Inter, system-ui, sans-serif" font-size="32" font-weight="700" fill="#26251e">Ripple</text>
  <text x="198" y="596" font-family="Inter, system-ui, sans-serif" font-size="24" fill="#76746a">Agentic video editing without code setup, worktrees, or dependency wrangling.</text>
</svg>
