<svg width="1024" height="1024" viewBox="0 0 1024 1024" fill="none" xmlns="http://www.w3.org/2000/svg">
  <defs>
    <linearGradient id="tileGradient" x1="116" y1="72" x2="908" y2="950" gradientUnits="userSpaceOnUse">
      <stop stop-color="#202020"/>
      <stop offset="0.52" stop-color="#090909"/>
      <stop offset="1" stop-color="#000000"/>
    </linearGradient>
    <radialGradient id="tileGlow" cx="0" cy="0" r="1" gradientUnits="userSpaceOnUse" gradientTransform="translate(512 500) rotate(90) scale(560 500)">
      <stop stop-color="#383838" stop-opacity="0.72"/>
      <stop offset="0.72" stop-color="#050505" stop-opacity="0"/>
    </radialGradient>
    <linearGradient id="leftFade" x1="140" y1="0" x2="426" y2="0" gradientUnits="userSpaceOnUse">
      <stop stop-color="white" stop-opacity="0"/>
      <stop offset="0.42" stop-color="white" stop-opacity="0.48"/>
      <stop offset="0.83" stop-color="white" stop-opacity="0.98"/>
      <stop offset="1" stop-color="white"/>
    </linearGradient>
    <linearGradient id="rightFade" x1="598" y1="0" x2="884" y2="0" gradientUnits="userSpaceOnUse">
      <stop stop-color="white"/>
      <stop offset="0.17" stop-color="white" stop-opacity="0.98"/>
      <stop offset="0.58" stop-color="white" stop-opacity="0.48"/>
      <stop offset="1" stop-color="white" stop-opacity="0"/>
    </linearGradient>
    <linearGradient id="playhead" x1="512" y1="198" x2="512" y2="826" gradientUnits="userSpaceOnUse">
      <stop stop-color="#FFFFFF"/>
      <stop offset="0.54" stop-color="#F4F4F4"/>
      <stop offset="1" stop-color="#DADADA"/>
    </linearGradient>
    <pattern id="tickPattern" width="36" height="28" patternUnits="userSpaceOnUse">
      <path d="M0 0V16" stroke="white" stroke-opacity="0.16" stroke-width="3"/>
      <path d="M18 0V9" stroke="white" stroke-opacity="0.1" stroke-width="2"/>
    </pattern>
    <filter id="softStreak" x="-70" y="-20" width="420" height="62" filterUnits="userSpaceOnUse" color-interpolation-filters="sRGB">
      <feGaussianBlur stdDeviation="17 4"/>
    </filter>
    <filter id="barShadow" x="448" y="164" width="128" height="700" filterUnits="userSpaceOnUse" color-interpolation-filters="sRGB">
      <feDropShadow dx="0" dy="0" stdDeviation="8" flood-color="#FFFFFF" flood-opacity="0.12"/>
      <feDropShadow dx="0" dy="18" stdDeviation="18" flood-color="#000000" flood-opacity="0.28"/>
    </filter>
    <clipPath id="tileClip">
      <rect x="48" y="48" width="928" height="928" rx="150"/>
    </clipPath>
  </defs>

  <g clip-path="url(#tileClip)">
    <rect x="48" y="48" width="928" height="928" rx="150" fill="url(#tileGradient)"/>
    <rect x="48" y="48" width="928" height="928" rx="150" fill="url(#tileGlow)"/>
    <rect x="49.5" y="49.5" width="925" height="925" rx="148.5" stroke="white" stroke-opacity="0.09" stroke-width="3"/>

    <g opacity="0.72">
      <path d="M48 228H976" stroke="white" stroke-opacity="0.15" stroke-width="3"/>
      <path d="M48 512H976" stroke="white" stroke-opacity="0.07" stroke-width="3"/>
      <path d="M48 796H976" stroke="white" stroke-opacity="0.15" stroke-width="3"/>
      <path d="M288 48V976" stroke="white" stroke-opacity="0.14" stroke-width="3"/>
      <path d="M512 48V976" stroke="white" stroke-opacity="0.11" stroke-width="3" stroke-dasharray="14 14"/>
      <path d="M736 48V976" stroke="white" stroke-opacity="0.14" stroke-width="3"/>
      <path d="M48 228H976" stroke="white" stroke-opacity="0.12" stroke-width="2" stroke-dasharray="14 16"/>
      <path d="M48 796H976" stroke="white" stroke-opacity="0.12" stroke-width="2" stroke-dasharray="14 16"/>
    </g>

    <rect x="48" y="205" width="928" height="28" fill="url(#tickPattern)" opacity="0.5"/>
    <rect x="48" y="791" width="928" height="28" fill="url(#tickPattern)" opacity="0.5"/>

    <g opacity="0.32" filter="url(#softStreak)">
      <path d="M140 330H430" stroke="url(#leftFade)" stroke-width="25" stroke-linecap="round"/>
      <path d="M116 402H404" stroke="url(#leftFade)" stroke-width="25" stroke-linecap="round"/>
      <path d="M108 474H430" stroke="url(#leftFade)" stroke-width="25" stroke-linecap="round"/>
      <path d="M120 546H404" stroke="url(#leftFade)" stroke-width="25" stroke-linecap="round"/>
      <path d="M148 618H430" stroke="url(#leftFade)" stroke-width="25" stroke-linecap="round"/>
      <path d="M594 330H884" stroke="url(#rightFade)" stroke-width="25" stroke-linecap="round"/>
      <path d="M620 402H908" stroke="url(#rightFade)" stroke-width="25" stroke-linecap="round"/>
      <path d="M594 474H916" stroke="url(#rightFade)" stroke-width="25" stroke-linecap="round"/>
      <path d="M620 546H904" stroke="url(#rightFade)" stroke-width="25" stroke-linecap="round"/>
      <path d="M594 618H876" stroke="url(#rightFade)" stroke-width="25" stroke-linecap="round"/>
    </g>

    <g>
      <path d="M234 330H424" stroke="url(#leftFade)" stroke-width="23" stroke-linecap="round"/>
      <path d="M162 402H386" stroke="url(#leftFade)" stroke-width="23" stroke-linecap="round"/>
      <path d="M142 474H424" stroke="url(#leftFade)" stroke-width="23" stroke-linecap="round"/>
      <path d="M162 546H386" stroke="url(#leftFade)" stroke-width="23" stroke-linecap="round"/>
      <path d="M234 618H424" stroke="url(#leftFade)" stroke-width="23" stroke-linecap="round"/>

      <path d="M600 330H790" stroke="url(#rightFade)" stroke-width="23" stroke-linecap="round"/>
      <path d="M638 402H862" stroke="url(#rightFade)" stroke-width="23" stroke-linecap="round"/>
      <path d="M600 474H882" stroke="url(#rightFade)" stroke-width="23" stroke-linecap="round"/>
      <path d="M638 546H862" stroke="url(#rightFade)" stroke-width="23" stroke-linecap="round"/>
      <path d="M600 618H790" stroke="url(#rightFade)" stroke-width="23" stroke-linecap="round"/>
    </g>

    <g filter="url(#barShadow)">
      <rect x="474" y="198" width="76" height="628" rx="26" fill="url(#playhead)"/>
    </g>
  </g>
</svg>
